<svg xmlns="http://www.w3.org/2000/svg" viewBox="0 0 100 100">
  <rect width="100" height="100" rx="20" fill="#ffffff"/>
  <path d="M14 56 A36 36 0 0 1 86 56" fill="none" stroke="#C0392B" stroke-width="9" stroke-linecap="round"/>
  <path d="M26 56 A24 24 0 0 1 74 56" fill="none" stroke="#C0392B" stroke-width="7" stroke-linecap="round"/>
  <path d="M11 60 Q31 51 50 61 Q69 51 89 60 L86 72 Q69 62 50 72 Q31 62 14 72 Z" fill="#C0392B"/>
  <g fill="#7B9BE8">
    <path d="M46 30 C49 35 51 38 51 41 a5 5 0 0 1-10 0 C41 38 43 35 46 30 Z"/>
    <path d="M58 34 C60 37.5 61.5 40 61.5 42 a3.6 3.6 0 0 1-7.2 0 C54.3 40 56 37.5 58 34 Z"/>
    <path d="M51 50 C52.6 52.6 53.7 54.4 53.7 56 a2.7 2.7 0 0 1-5.4 0 C48.3 54.4 49.4 52.6 51 50 Z"/>
  </g>
</svg>
